<?xml version="1.0" standalone="no"?>
<!DOCTYPE svg PUBLIC "-//W3C//DTD SVG 20010904//EN"
 "http://www.w3.org/TR/2001/REC-SVG-20010904/DTD/svg10.dtd">
<svg version="1.0" xmlns="http://www.w3.org/2000/svg"
 width="5906.000000pt" height="3544.000000pt" viewBox="0 0 5906.000000 3544.000000"
 preserveAspectRatio="xMidYMid meet">

<g transform="translate(0.000000,3544.000000) scale(0.100000,-0.100000)"
fill="#000000" stroke="none">
<path d="M41168 32553 l-4818 -3 0 -165 0 -165 4318 -1 c2374 -1 6257 -5 8627
-9 3929 -6 4320 -8 4420 -23 382 -57 714 -158 1040 -316 371 -180 672 -396
966 -697 534 -548 846 -1202 956 -2004 16 -117 17 -807 21 -11010 2 -7605 0
-10936 -8 -11055 -30 -484 -146 -917 -360 -1340 -104 -206 -183 -334 -315
-510 -524 -699 -1263 -1161 -2120 -1325 -60 -11 -164 -28 -230 -38 -111 -15
-742 -16 -8717 -19 l-8598 -3 0 -170 0 -170 8544 0 c5895 0 8585 3 8673 11
1509 124 2786 1119 3276 2554 82 240 144 517 179 805 11 85 13 2175 13 11150
0 10626 -1 11050 -18 11180 -99 733 -360 1352 -804 1911 -133 167 -418 453
-583 585 -624 497 -1342 773 -2140 824 -110 6 -1384 9 -3835 7 -2018 -1 -5838
-3 -8487 -4z"/>
<path d="M40715 27209 c-1105 -110 -1939 -622 -2583 -1586 -427 -638 -672
-1356 -769 -2248 -22 -206 -25 -982 -5 -1200 69 -729 226 -1329 496 -1890 317
-657 755 -1189 1248 -1516 442 -293 900 -451 1491 -515 207 -23 627 -23 834 0
602 65 1096 236 1538 531 213 142 326 235 521 430 498 498 844 1101 1054 1840
243 857 283 1974 104 2900 -62 318 -181 716 -299 995 -238 565 -604 1096
-1000 1453 -225 203 -439 348 -710 482 -324 159 -643 253 -1055 311 -135 19
-721 28 -865 13z m704 -1283 c620 -118 1026 -479 1305 -1162 238 -585 345
-1364 316 -2311 -33 -1058 -208 -1762 -547 -2206 -66 -86 -243 -267 -333 -340
-420 -340 -916 -466 -1470 -376 -784 129 -1316 771 -1534 1849 -139 688 -155
1685 -40 2464 188 1267 731 1963 1634 2091 131 19 553 13 669 -9z"/>
<path d="M7380 22730 l0 -4360 785 0 785 0 0 1790 0 1790 1104 0 1105 0 21
-56 c33 -90 1318 -3487 1325 -3506 7 -17 56 -18 837 -18 786 0 830 1 825 18
-2 9 -343 869 -756 1911 -413 1042 -752 1900 -753 1908 -2 9 26 27 76 48 860
376 1345 996 1461 1870 22 166 30 480 16 650 -42 519 -197 942 -482 1321 -455
606 -1157 918 -2209 984 -103 6 -913 10 -2152 10 l-1988 0 0 -4360z m3925
3090 c391 -43 684 -165 906 -377 262 -249 380 -555 366 -948 -12 -329 -87
-547 -266 -775 -191 -242 -504 -404 -906 -469 -219 -35 -423 -41 -1457 -41
l-998 0 0 1310 0 1310 1133 0 c686 0 1167 -4 1222 -10z"/>
<path d="M14433 27078 c3 -7 669 -1140 1481 -2517 l1476 -2504 0 -1844 0
-1843 840 0 840 0 0 1843 0 1842 1409 2515 1409 2515 -751 3 c-593 2 -754 -1
-762 -10 -7 -7 -452 -813 -990 -1791 -538 -978 -982 -1776 -987 -1775 -5 2
-471 806 -1036 1788 l-1027 1785 -954 3 c-761 2 -952 0 -948 -10z"/>
<path d="M23943 27073 c-4 -10 -656 -1971 -1448 -4358 l-1441 -4340 670 -3
c368 -1 671 -1 673 1 2 2 156 467 342 1033 l338 1029 1679 0 1678 0 346 -1030
345 -1030 842 -3 842 -2 -487 1453 c-268 799 -926 2761 -1462 4360 l-975 2907
-968 0 c-912 0 -968 -1 -974 -17z m1433 -3430 l629 -1928 -632 -3 c-348 -1
-918 -1 -1266 0 l-633 3 630 1928 c346 1060 633 1927 636 1927 3 0 289 -867
636 -1927z"/>
<path d="M29850 22730 l0 -4361 2103 4 c2299 3 2149 0 2487 62 798 146 1345
544 1676 1220 113 231 179 454 220 740 25 170 25 536 0 700 -108 713 -505
1274 -1111 1569 -185 90 -384 155 -685 223 -18 4 9 14 101 39 222 59 427 148
594 259 446 296 740 773 821 1331 21 144 24 461 5 609 -64 509 -262 925 -615
1292 -328 342 -651 501 -1211 598 -416 71 -529 75 -2577 75 l-1808 0 0 -4360z
m3692 3082 c333 -70 620 -232 774 -435 54 -72 134 -235 158 -322 60 -227 61
-515 0 -753 -26 -105 -100 -268 -164 -363 -55 -81 -178 -209 -258 -270 -83
-62 -235 -140 -340 -173 -196 -61 -150 -59 -1309 -63 l-1063 -4 0 1206 0 1206
1048 -3 c1043 -3 1047 -3 1154 -26z m151 -3655 c301 -60 511 -164 698 -344
190 -183 301 -387 346 -637 20 -111 22 -366 4 -481 -81 -504 -443 -869 -969
-974 -185 -38 -299 -41 -1379 -41 l-1053 0 0 1250 0 1251 1133 -4 c1029 -2
1140 -4 1220 -20z"/>
<path d="M45070 27033 c15 -45 2644 -8569 2666 -8646 5 -16 50 -17 807 -15
l801 3 1363 4355 c749 2395 1363 4356 1363 4358 0 1 -296 1 -657 0 l-657 -3
-882 -2885 c-1168 -3818 -1157 -3781 -1160 -3778 -3 4 -1994 6656 -1994 6663
0 3 -375 5 -834 5 l-835 0 19 -57z"/>
<path d="M39128 15833 l-3928 -3 0 -198 0 -199 5888 -6 c3238 -4 7033 -7 8435
-7 l2547 0 0 210 0 210 -4507 -2 c-2480 -2 -6275 -4 -8435 -5z"/>
<path d="M8207 12525 c-365 -44 -703 -175 -957 -370 -256 -197 -440 -421 -576
-700 -156 -321 -226 -661 -226 -1095 -1 -422 69 -742 229 -1060 96 -190 180
-307 333 -461 267 -268 569 -414 1005 -486 156 -25 609 -26 775 0 144 22 333
68 461 113 105 36 309 121 322 133 7 7 -176 391 -186 391 -3 0 -43 -18 -90
-40 -343 -161 -799 -225 -1167 -164 -485 81 -869 395 -1055 863 -132 333 -163
809 -79 1231 129 647 569 1096 1175 1199 383 65 829 13 1171 -137 57 -25 38
-50 147 193 l80 177 -64 29 c-180 81 -466 158 -691 184 -156 18 -456 18 -607
0z"/>
<path d="M18090 12533 c-614 -63 -1065 -322 -1384 -796 -212 -315 -329 -703
-356 -1179 -36 -629 117 -1169 447 -1578 299 -371 713 -588 1222 -641 143 -15
472 -6 601 16 877 148 1439 784 1555 1760 23 191 24 547 1 715 -67 499 -238
877 -535 1183 -348 360 -784 530 -1339 525 -97 0 -193 -3 -212 -5z m475 -448
c135 -22 229 -51 342 -105 206 -98 373 -241 496 -426 143 -215 221 -440 269
-769 20 -142 17 -602 -5 -745 -36 -229 -85 -388 -174 -563 -194 -380 -529
-623 -958 -693 -147 -24 -412 -24 -545 0 -274 49 -498 172 -697 380 -224 234
-360 523 -418 892 -22 137 -30 461 -16 609 26 263 87 481 192 685 224 434 597
697 1064 750 105 12 337 4 450 -15z"/>
<path d="M40087 12525 c-365 -44 -703 -175 -957 -370 -256 -197 -440 -421
-576 -700 -156 -321 -226 -661 -226 -1095 -1 -422 69 -742 229 -1060 96 -190
180 -307 333 -461 267 -268 569 -414 1005 -486 156 -25 609 -26 775 0 144 22
333 68 461 113 105 36 309 121 322 133 7 7 -176 391 -186 391 -3 0 -43 -18
-90 -40 -343 -161 -799 -225 -1167 -164 -485 81 -869 395 -1055 863 -132 333
-163 809 -79 1231 129 647 569 1096 1175 1199 383 65 829 13 1171 -137 57 -25
38 -50 147 193 l80 177 -64 29 c-180 81 -466 158 -691 184 -156 18 -456 18
-607 0z"/>
<path d="M50050 12533 c-614 -63 -1065 -322 -1384 -796 -212 -315 -329 -703
-356 -1179 -36 -629 117 -1169 447 -1578 299 -371 713 -588 1222 -641 143 -15
472 -6 601 16 877 148 1439 784 1555 1760 23 191 24 547 1 715 -67 499 -238
877 -535 1183 -348 360 -784 530 -1339 525 -97 0 -193 -3 -212 -5z m475 -448
c135 -22 229 -51 342 -105 206 -98 373 -241 496 -426 143 -215 221 -440 269
-769 20 -142 17 -602 -5 -745 -36 -229 -85 -388 -174 -563 -194 -380 -529
-623 -958 -693 -147 -24 -412 -24 -545 0 -274 49 -498 172 -697 380 -224 234
-360 523 -418 892 -22 137 -30 461 -16 609 26 263 87 481 192 685 224 434 597
697 1064 750 105 12 337 4 450 -15z"/>
<path d="M9890 12255 l0 -215 585 0 585 0 0 -1820 0 -1820 240 0 240 0 0 1820
0 1820 590 0 590 0 0 215 0 215 -1415 0 -1415 0 0 -215z"/>
<path d="M13350 10436 l0 -2036 240 0 240 0 0 745 0 745 343 0 c430 0 552 14
777 86 210 67 376 171 535 335 245 252 355 539 355 926 0 316 -74 564 -230
771 -168 223 -420 366 -764 434 -106 21 -139 22 -803 26 l-693 3 0 -2035z
m1209 1593 c388 -36 632 -198 732 -486 46 -134 60 -342 34 -513 -29 -193 -90
-316 -220 -446 -79 -79 -105 -98 -195 -143 -197 -97 -356 -121 -802 -121
l-278 0 0 860 0 860 308 0 c169 0 358 -5 421 -11z"/>
<path d="M20990 10435 l0 -2035 248 0 249 0 1118 1616 c614 888 1140 1654
1167 1702 l49 87 -6 -75 c-3 -41 -8 -807 -11 -1702 l-5 -1628 241 0 240 0 0
2035 0 2035 -247 0 -248 0 -1115 -1611 c-613 -886 -1139 -1652 -1168 -1703
l-53 -91 6 60 c4 33 9 799 11 1703 l5 1642 -241 0 -240 0 0 -2035z"/>
<path d="M24920 12255 l0 -215 585 0 585 0 0 -1820 0 -1820 240 0 240 0 0
1820 0 1820 590 0 590 0 0 215 0 215 -1415 0 -1415 0 0 -215z"/>
<path d="M28390 10435 l0 -2035 1080 0 1080 0 0 215 0 215 -840 0 -840 0 0
715 0 715 735 0 735 0 0 215 0 215 -735 0 -735 0 0 675 0 675 795 0 795 0 0
215 0 215 -1035 0 -1035 0 0 -2035z"/>
<path d="M31690 11308 c0 -1324 -9 -1598 -66 -1928 -79 -463 -264 -644 -616
-603 -51 6 -94 10 -95 9 -8 -8 -79 -413 -74 -419 4 -4 45 -15 92 -23 119 -23
373 -15 483 15 216 59 405 218 509 426 110 222 163 472 208 995 7 76 13 541
16 1193 l5 1067 769 0 769 0 0 -1820 0 -1820 240 0 240 0 0 2035 0 2035 -1240
0 -1240 0 0 -1162z"/>
<path d="M35240 10434 l0 -2035 683 4 c644 4 688 5 792 25 311 60 531 163 710
333 177 168 277 355 337 633 20 88 22 131 22 336 1 220 -1 242 -26 347 -95
399 -335 666 -719 801 -220 77 -362 92 -894 92 l-425 0 0 750 0 750 -240 0
-240 0 0 -2036z m1393 77 c354 -78 564 -272 633 -584 22 -97 22 -337 1 -432
-68 -302 -242 -497 -532 -594 -169 -56 -226 -62 -637 -68 l-378 -5 0 857 0
857 408 -5 c368 -4 416 -7 505 -26z"/>
<path d="M41770 12255 l0 -215 585 0 585 0 0 -1820 0 -1820 240 0 240 0 0
1820 0 1820 590 0 590 0 0 215 0 215 -1415 0 -1415 0 0 -215z"/>
<path d="M45230 10435 l0 -2036 713 4 c696 3 714 4 812 26 271 61 467 161 644
327 183 172 289 374 326 621 47 312 -20 616 -182 821 -143 181 -364 309 -613
356 -46 9 -85 18 -87 20 -2 1 37 20 87 40 268 111 473 331 558 596 38 119 47
182 46 335 0 166 -18 257 -73 380 -129 283 -424 476 -811 530 -91 12 -229 15
-765 15 l-655 0 0 -2035z m1190 1595 c314 -32 500 -147 581 -361 42 -110 41
-335 -2 -469 -50 -155 -160 -283 -314 -362 -170 -88 -301 -108 -702 -108
l-273 0 0 655 0 655 308 0 c169 0 350 -5 402 -10z m25 -1741 c371 -32 608
-156 719 -377 53 -106 69 -184 69 -337 -1 -228 -56 -369 -198 -511 -66 -66
-99 -90 -176 -128 -183 -90 -304 -106 -800 -106 l-349 0 0 735 0 735 308 0
c169 0 361 -5 427 -11z"/>
</g>
</svg>
