<?xml version="1.0" standalone="no"?>
<!DOCTYPE svg PUBLIC "-//W3C//DTD SVG 20010904//EN"
 "http://www.w3.org/TR/2001/REC-SVG-20010904/DTD/svg10.dtd">
<svg version="1.0" xmlns="http://www.w3.org/2000/svg"
 width="5906.000000pt" height="3544.000000pt" viewBox="0 0 5906.000000 3544.000000"
 preserveAspectRatio="xMidYMid meet">

<g transform="translate(0.000000,3544.000000) scale(0.100000,-0.100000)"
fill="#000000" stroke="none">
<path d="M0 17720 l0 -17720 29528 2 29527 3 3 17718 2 17717 -29530 0 -29530
0 0 -17720z m36570 14210 l0 -170 -15702 0 c-10519 0 -15759 -4 -15873 -10
-1029 -62 -1947 -556 -2562 -1380 -336 -450 -549 -967 -646 -1570 l-22 -135
-3 -10990 c-2 -8159 0 -11025 8 -11125 56 -665 298 -1276 726 -1830 114 -148
416 -450 564 -564 517 -399 1031 -616 1690 -713 107 -15 566 -17 6390 -23
3451 -4 10585 -8 15853 -9 l9577 -1 0 -170 0 -170 -15763 0 c-10883 0 -15805
3 -15898 10 -656 52 -1277 265 -1819 625 -201 134 -382 285 -580 484 -250 251
-400 443 -569 726 -282 474 -445 959 -513 1530 -20 165 -19 22103 0 22280 174
1554 1259 2830 2762 3245 192 53 487 105 705 123 22 2 7158 4 15858 5 l15817
2 0 -170z m5095 -5180 c686 -62 1238 -273 1745 -666 151 -117 409 -375 542
-542 537 -674 865 -1484 983 -2427 71 -568 65 -1249 -15 -1810 -154 -1069
-568 -1933 -1241 -2591 -496 -484 -1082 -776 -1782 -889 -467 -75 -973 -68
-1428 21 -1047 203 -1830 849 -2375 1957 -293 596 -457 1242 -514 2032 -13
180 -13 729 0 910 74 1030 379 1895 923 2620 366 488 773 830 1270 1070 353
170 736 274 1157 313 134 13 603 14 735 2z m-29915 -130 c792 -49 1394 -246
1830 -597 97 -78 278 -266 357 -368 327 -431 483 -895 500 -1490 21 -749 -182
-1337 -619 -1791 -217 -225 -510 -425 -828 -564 -69 -30 -114 -55 -112 -63 2
-6 341 -865 754 -1907 413 -1042 753 -1903 756 -1913 4 -16 -38 -17 -828 -15
l-832 3 -676 1788 -675 1787 -1104 0 -1103 0 0 -1790 0 -1790 -785 0 -785 0 0
4360 0 4360 1993 0 c1238 0 2054 -4 2157 -10z m5834 -1780 c566 -985 1032
-1790 1036 -1790 3 0 449 805 991 1790 l984 1789 758 1 c417 0 756 -3 754 -7
-2 -5 -637 -1138 -1411 -2519 l-1406 -2512 0 -1841 0 -1841 -840 0 -840 0 0
1843 0 1842 -1476 2505 c-812 1378 -1479 2510 -1481 2517 -4 10 184 13 948 13
l954 -1 1029 -1789z m9990 -2557 c802 -2392 1461 -4354 1463 -4360 4 -10 -168
-13 -838 -13 l-844 0 -346 1033 -347 1032 -1675 3 -1676 2 -105 -317 c-57
-175 -211 -641 -341 -1035 l-236 -718 -673 0 -674 0 322 973 c178 534 828
2496 1447 4359 l1124 3388 970 0 971 0 1458 -4347z m6301 4337 c528 -31 968
-120 1252 -255 109 -51 267 -153 368 -235 157 -129 348 -345 470 -533 397
-611 456 -1504 140 -2140 -254 -510 -679 -849 -1249 -996 l-108 -29 78 -16
c478 -103 843 -283 1126 -554 518 -498 732 -1229 597 -2042 -68 -411 -251
-798 -531 -1125 -400 -468 -956 -711 -1772 -775 -81 -6 -874 -10 -2147 -10
l-2019 0 0 4360 0 4360 1813 0 c1072 0 1881 -4 1982 -10z m13096 -62 c53 -180
1960 -6556 1967 -6576 5 -17 278 861 1027 3312 l1020 3336 659 0 c522 0 657
-3 654 -12 -3 -7 -616 -1969 -1364 -4360 l-1359 -4348 -802 0 -802 0 -35 113
c-19 61 -620 2011 -1336 4332 -715 2321 -1305 4232 -1310 4248 l-9 27 834 0
834 0 22 -72z m-11541 -11383 l0 -205 -14335 0 -14335 0 0 205 0 205 14335 0
14335 0 0 -205z m-26270 -3124 c146 -25 205 -40 355 -88 92 -29 273 -98 283
-108 3 -2 -157 -361 -171 -382 -6 -9 -19 -7 -53 8 -436 186 -970 218 -1393 83
-114 -37 -285 -126 -382 -198 -407 -307 -619 -797 -619 -1431 0 -512 136 -907
415 -1203 343 -364 829 -498 1435 -396 173 29 311 75 577 191 13 5 207 -372
198 -387 -7 -12 -211 -97 -330 -137 -275 -94 -526 -133 -854 -133 -583 0
-1023 157 -1365 489 -352 342 -541 790 -576 1370 -50 838 231 1537 787 1957
292 221 598 336 1033 388 19 2 148 3 285 1 199 -2 275 -7 375 -24z m9635 19
c413 -46 752 -201 1029 -469 369 -358 559 -805 596 -1404 19 -300 -8 -609 -76
-887 -122 -494 -384 -882 -772 -1141 -242 -162 -517 -255 -851 -290 -143 -15
-472 -6 -601 16 -378 63 -673 207 -927 449 -382 364 -575 810 -613 1412 -30
484 55 956 238 1320 285 567 809 925 1453 993 119 12 417 13 524 1z m22245
-19 c146 -25 205 -40 355 -88 92 -29 273 -98 283 -108 3 -2 -157 -361 -171
-382 -6 -9 -19 -7 -53 8 -436 186 -970 218 -1393 83 -114 -37 -285 -126 -382
-198 -407 -307 -619 -797 -619 -1431 0 -512 136 -907 415 -1203 343 -364 829
-498 1435 -396 173 29 311 75 577 191 13 5 207 -372 198 -387 -7 -12 -211 -97
-330 -137 -275 -94 -526 -133 -854 -133 -583 0 -1023 157 -1365 489 -352 342
-541 790 -576 1370 -50 838 231 1537 787 1957 292 221 598 336 1033 388 19 2
148 3 285 1 199 -2 275 -7 375 -24z m9705 19 c413 -46 752 -201 1029 -469 369
-358 559 -805 596 -1404 19 -300 -8 -609 -76 -887 -122 -494 -384 -882 -772
-1141 -242 -162 -517 -255 -851 -290 -143 -15 -472 -6 -601 16 -378 63 -673
207 -927 449 -382 364 -575 810 -613 1412 -30 484 55 956 238 1320 285 567
809 925 1453 993 119 12 417 13 524 1z m-37795 -275 l0 -215 -590 0 -590 0 0
-1820 0 -1820 -240 0 -240 0 0 1820 0 1820 -585 0 -585 0 0 215 0 215 1415 0
1415 0 0 -215z m2031 200 c335 -44 578 -153 770 -344 172 -171 275 -394 310
-667 17 -135 6 -423 -20 -534 -105 -452 -421 -793 -872 -940 -196 -64 -273
-73 -711 -78 l-398 -4 0 -744 0 -744 -240 0 -240 0 0 2035 0 2035 648 0 c500
0 671 -4 753 -15z m6715 -1627 c-2 -904 -7 -1670 -11 -1703 l-6 -60 52 90 c28
50 554 816 1167 1703 l1116 1612 248 0 248 0 0 -2035 0 -2035 -240 0 -241 0 5
1633 c3 897 7 1661 10 1697 7 73 10 76 -67 -53 -28 -48 -549 -805 -1156 -1682
l-1103 -1595 -249 0 -249 0 0 2035 0 2035 240 0 241 0 -5 -1642z m6284 1427
l0 -215 -590 0 -590 0 0 -1820 0 -1820 -240 0 -240 0 0 1820 0 1820 -585 0
-585 0 0 215 0 215 1415 0 1415 0 0 -215z m2710 0 l0 -215 -795 0 -795 0 0
-675 0 -675 735 0 735 0 0 -215 0 -215 -735 0 -735 0 0 -715 0 -715 840 0 840
0 0 -215 0 -215 -1080 0 -1080 0 0 2035 0 2035 1035 0 1035 0 0 -215z m3710
-1820 l0 -2035 -240 0 -240 0 0 1820 0 1820 -770 0 -770 0 0 -939 c0 -928 -6
-1199 -35 -1501 -54 -558 -175 -891 -390 -1074 -127 -108 -249 -163 -414 -187
-142 -20 -441 -2 -473 29 -5 6 66 409 74 417 2 2 43 -2 92 -8 104 -12 231 1
302 32 25 11 74 48 109 82 159 153 232 448 265 1069 5 109 10 706 10 1353 l0
1157 1240 0 1240 0 0 -2035z m1550 1286 l0 -749 493 -5 c441 -4 502 -7 592
-25 286 -57 488 -156 657 -320 174 -169 274 -374 314 -643 23 -155 15 -460
-16 -601 -120 -563 -532 -901 -1180 -967 -59 -7 -360 -11 -721 -11 l-619 0 0
2035 0 2035 240 0 240 0 0 -749z m8880 534 l0 -215 -590 0 -590 0 0 -1820 0
-1820 -240 0 -240 0 0 1820 0 1820 -585 0 -585 0 0 215 0 215 1415 0 1415 0 0
-215z m2020 205 c402 -49 703 -240 840 -532 57 -123 73 -205 74 -388 0 -136
-4 -180 -21 -250 -47 -185 -135 -341 -265 -466 -108 -104 -215 -171 -386 -240
-20 -8 -3 -14 97 -36 388 -85 652 -327 748 -684 24 -89 26 -117 27 -284 1
-195 -5 -243 -51 -385 -54 -166 -138 -299 -273 -429 -176 -170 -384 -278 -648
-338 -94 -21 -119 -22 -814 -25 l-718 -4 0 2035 0 2036 653 0 c384 0 687 -4
737 -10z"/>
<path d="M41010 25479 c-166 -21 -340 -68 -479 -128 -659 -284 -1054 -969
-1201 -2083 -68 -518 -78 -1268 -25 -1798 134 -1324 627 -2131 1441 -2360 170
-48 295 -63 509 -63 277 1 474 40 710 141 256 110 501 296 703 535 237 279
395 657 497 1187 126 656 145 1692 44 2395 -80 558 -232 1028 -447 1384 -157
261 -407 502 -646 623 -154 78 -346 136 -535 162 -121 17 -455 20 -571 5z"/>
<path d="M9170 24059 l0 -1310 1108 4 c1203 4 1210 5 1470 63 300 67 507 171
687 345 178 172 281 362 337 622 30 139 32 448 4 575 -39 183 -109 341 -205
469 -228 302 -580 482 -1043 532 -63 7 -501 11 -1228 11 l-1130 0 0 -1311z"/>
<path d="M24337 23187 c-345 -1057 -627 -1925 -627 -1929 0 -5 568 -8 1261 -8
l1261 0 -6 23 c-16 64 -1252 3837 -1256 3837 -3 0 -287 -865 -633 -1923z"/>
<path d="M31570 24175 l0 -1206 1063 4 c1032 3 1065 4 1157 24 251 55 426 143
587 296 180 171 293 380 350 647 25 119 25 428 0 554 -48 238 -160 434 -323
568 -200 163 -483 277 -766 308 -61 6 -464 10 -1083 10 l-985 0 0 -1205z"/>
<path d="M31570 20470 l0 -1250 1053 0 c1082 0 1185 3 1372 41 492 100 842
417 950 862 83 343 37 716 -122 981 -185 309 -493 511 -903 593 -76 15 -204
17 -1217 20 l-1133 4 0 -1251z"/>
<path d="M18356 11640 c-321 -37 -583 -159 -794 -368 -322 -321 -482 -752
-482 -1302 0 -430 97 -788 292 -1081 85 -128 274 -316 390 -388 288 -177 634
-237 1008 -175 440 73 784 334 975 737 129 271 183 585 172 986 -11 370 -65
625 -188 878 -122 250 -322 458 -552 575 -104 52 -259 103 -376 122 -117 20
-341 28 -445 16z"/>
<path d="M50306 11640 c-321 -37 -583 -159 -794 -368 -322 -321 -482 -752
-482 -1302 0 -430 97 -788 292 -1081 85 -128 274 -316 390 -388 288 -177 634
-237 1008 -175 440 73 784 334 975 737 129 271 183 585 172 986 -11 370 -65
625 -188 878 -122 250 -322 458 -552 575 -104 52 -259 103 -376 122 -117 20
-341 28 -445 16z"/>
<path d="M14060 10720 l0 -862 348 5 c419 6 522 21 698 102 226 103 375 284
436 530 32 129 32 380 0 507 -78 313 -277 486 -637 554 -71 13 -170 18 -467
21 l-378 5 0 -862z"/>
<path d="M35950 9225 l0 -855 303 0 c470 0 628 23 822 119 267 132 403 340
436 662 19 197 -22 410 -108 553 -96 160 -274 280 -494 335 -132 32 -265 41
-625 41 l-334 0 0 -855z"/>
<path d="M45940 10925 l0 -655 264 0 c145 0 309 5 365 10 434 45 690 300 692
691 1 130 -13 203 -57 295 -61 129 -198 229 -377 274 -123 31 -257 40 -583 40
l-304 0 0 -655z"/>
<path d="M45940 9106 l0 -736 353 0 c484 0 616 18 797 107 77 38 110 62 175
128 143 142 197 284 197 510 0 222 -49 356 -181 485 -115 114 -253 175 -486
216 -68 12 -185 18 -472 21 l-383 5 0 -736z"/>
</g>
</svg>
